<mxfile host="app.diagrams.net" modified="2023-10-22T23:29:12.758Z" agent="Mozilla/5.0 (Windows NT 10.0; Win64; x64) AppleWebKit/537.36 (KHTML, like Gecko) Chrome/118.0.0.0 Safari/537.36" etag="7hsLOS29JTLhTm64b-1R" version="22.0.6" type="github">
  <diagram name="Page-1" id="fURGDs59hNr_vnJ9uaAE">
    <mxGraphModel dx="1613" dy="1463" grid="1" gridSize="10" guides="1" tooltips="1" connect="1" arrows="1" fold="1" page="1" pageScale="1" pageWidth="850" pageHeight="1100" math="0" shadow="0">
      <root>
        <mxCell id="0" />
        <mxCell id="1" parent="0" />
        <mxCell id="UnlOtEjSE4POLt_gYA5B-1" value="&#xa;&lt;span style=&quot;color: rgb(51, 51, 51); font-family: &amp;quot;Times New Roman&amp;quot;; font-size: 16px; font-style: normal; font-variant-ligatures: normal; font-variant-caps: normal; font-weight: 400; letter-spacing: normal; orphans: 2; text-align: justify; text-indent: 30px; text-transform: none; widows: 2; word-spacing: 0px; -webkit-text-stroke-width: 0px; background-color: rgb(255, 255, 255); text-decoration-thickness: initial; text-decoration-style: initial; text-decoration-color: initial; float: none; display: inline !important;&quot;&gt;служби забезпечення органів військового управління&lt;/span&gt;&#xa;&#xa;" style="rounded=0;whiteSpace=wrap;html=1;" vertex="1" parent="1">
          <mxGeometry x="365" y="130" width="185" height="80" as="geometry" />
        </mxCell>
        <mxCell id="UnlOtEjSE4POLt_gYA5B-3" style="edgeStyle=orthogonalEdgeStyle;rounded=0;orthogonalLoop=1;jettySize=auto;html=1;" edge="1" parent="1" source="UnlOtEjSE4POLt_gYA5B-2" target="UnlOtEjSE4POLt_gYA5B-1">
          <mxGeometry relative="1" as="geometry" />
        </mxCell>
        <mxCell id="UnlOtEjSE4POLt_gYA5B-2" value="центр&lt;br&gt;&amp;nbsp;забезбечення&lt;br&gt;(військова частина)" style="rounded=0;whiteSpace=wrap;html=1;" vertex="1" parent="1">
          <mxGeometry x="397.5" y="280" width="120" height="60" as="geometry" />
        </mxCell>
        <mxCell id="UnlOtEjSE4POLt_gYA5B-7" style="edgeStyle=orthogonalEdgeStyle;rounded=0;orthogonalLoop=1;jettySize=auto;html=1;exitX=0.5;exitY=0;exitDx=0;exitDy=0;entryX=0.5;entryY=1;entryDx=0;entryDy=0;" edge="1" parent="1" source="UnlOtEjSE4POLt_gYA5B-4" target="UnlOtEjSE4POLt_gYA5B-2">
          <mxGeometry relative="1" as="geometry" />
        </mxCell>
        <mxCell id="UnlOtEjSE4POLt_gYA5B-4" value="арсенал" style="rounded=0;whiteSpace=wrap;html=1;" vertex="1" parent="1">
          <mxGeometry x="200" y="410" width="120" height="60" as="geometry" />
        </mxCell>
        <mxCell id="UnlOtEjSE4POLt_gYA5B-8" style="edgeStyle=orthogonalEdgeStyle;rounded=0;orthogonalLoop=1;jettySize=auto;html=1;exitX=0.5;exitY=0;exitDx=0;exitDy=0;" edge="1" parent="1" source="UnlOtEjSE4POLt_gYA5B-5">
          <mxGeometry relative="1" as="geometry">
            <mxPoint x="460" y="340" as="targetPoint" />
          </mxGeometry>
        </mxCell>
        <mxCell id="UnlOtEjSE4POLt_gYA5B-5" value="база" style="rounded=0;whiteSpace=wrap;html=1;" vertex="1" parent="1">
          <mxGeometry x="397.5" y="410" width="120" height="60" as="geometry" />
        </mxCell>
        <mxCell id="UnlOtEjSE4POLt_gYA5B-9" style="edgeStyle=orthogonalEdgeStyle;rounded=0;orthogonalLoop=1;jettySize=auto;html=1;exitX=0.5;exitY=0;exitDx=0;exitDy=0;" edge="1" parent="1" source="UnlOtEjSE4POLt_gYA5B-6">
          <mxGeometry relative="1" as="geometry">
            <mxPoint x="460" y="340" as="targetPoint" />
          </mxGeometry>
        </mxCell>
        <mxCell id="UnlOtEjSE4POLt_gYA5B-6" value="склад" style="rounded=0;whiteSpace=wrap;html=1;" vertex="1" parent="1">
          <mxGeometry x="590" y="410" width="120" height="60" as="geometry" />
        </mxCell>
        <mxCell id="UnlOtEjSE4POLt_gYA5B-13" value="орган військового управління" style="swimlane;whiteSpace=wrap;html=1;" vertex="1" parent="1">
          <mxGeometry x="390" y="740" width="240" height="200" as="geometry" />
        </mxCell>
        <mxCell id="UnlOtEjSE4POLt_gYA5B-14" value="керівник" style="shape=umlActor;verticalLabelPosition=bottom;verticalAlign=top;html=1;outlineConnect=0;" vertex="1" parent="UnlOtEjSE4POLt_gYA5B-13">
          <mxGeometry x="40" y="60" width="30" height="60" as="geometry" />
        </mxCell>
        <mxCell id="UnlOtEjSE4POLt_gYA5B-15" value="військова частина" style="swimlane;whiteSpace=wrap;html=1;" vertex="1" parent="1">
          <mxGeometry x="710" y="740" width="240" height="200" as="geometry" />
        </mxCell>
        <mxCell id="UnlOtEjSE4POLt_gYA5B-16" value="командир" style="shape=umlActor;verticalLabelPosition=bottom;verticalAlign=top;html=1;outlineConnect=0;" vertex="1" parent="UnlOtEjSE4POLt_gYA5B-15">
          <mxGeometry x="40" y="60" width="30" height="60" as="geometry" />
        </mxCell>
        <mxCell id="UnlOtEjSE4POLt_gYA5B-18" value="&lt;h1&gt;Організація обліку&lt;/h1&gt;" style="text;html=1;strokeColor=none;fillColor=none;spacing=5;spacingTop=-20;whiteSpace=wrap;overflow=hidden;rounded=0;" vertex="1" parent="1">
          <mxGeometry x="530" y="680" width="230" height="120" as="geometry" />
        </mxCell>
        <mxCell id="UnlOtEjSE4POLt_gYA5B-22" value="&lt;h1&gt;Зацікавлені особи&lt;/h1&gt;" style="text;html=1;strokeColor=none;fillColor=none;spacing=5;spacingTop=-20;whiteSpace=wrap;overflow=hidden;rounded=0;" vertex="1" parent="1">
          <mxGeometry x="930" y="100" width="190" height="120" as="geometry" />
        </mxCell>
        <mxCell id="UnlOtEjSE4POLt_gYA5B-23" value="начальник служби управління" style="ellipse;whiteSpace=wrap;html=1;fillColor=#FFF2CC;" vertex="1" parent="1">
          <mxGeometry x="930" y="290" width="120" height="80" as="geometry" />
        </mxCell>
        <mxCell id="UnlOtEjSE4POLt_gYA5B-25" value="переоцінка майна" style="ellipse;whiteSpace=wrap;html=1;" vertex="1" parent="1">
          <mxGeometry x="870" y="200" width="120" height="80" as="geometry" />
        </mxCell>
        <mxCell id="UnlOtEjSE4POLt_gYA5B-26" value="визначити залишкову вартість майна" style="ellipse;whiteSpace=wrap;html=1;" vertex="1" parent="1">
          <mxGeometry x="790" y="280" width="120" height="80" as="geometry" />
        </mxCell>
        <mxCell id="UnlOtEjSE4POLt_gYA5B-27" value="командир військової частини" style="ellipse;whiteSpace=wrap;html=1;fillColor=#FFF2CC;" vertex="1" parent="1">
          <mxGeometry x="1430" y="680" width="120" height="80" as="geometry" />
        </mxCell>
        <mxCell id="UnlOtEjSE4POLt_gYA5B-28" value="визначити коефіцієнт &lt;br&gt;індексації" style="ellipse;whiteSpace=wrap;html=1;" vertex="1" parent="1">
          <mxGeometry x="1215" y="140" width="120" height="80" as="geometry" />
        </mxCell>
        <mxCell id="UnlOtEjSE4POLt_gYA5B-29" value="визначити зазнчити ціну" style="ellipse;whiteSpace=wrap;html=1;" vertex="1" parent="1">
          <mxGeometry x="1340" y="120" width="120" height="80" as="geometry" />
        </mxCell>
        <mxCell id="UnlOtEjSE4POLt_gYA5B-30" value="начальник фінансово-економічної &lt;br&gt;частини" style="ellipse;whiteSpace=wrap;html=1;fillColor=#FFF2CC;" vertex="1" parent="1">
          <mxGeometry x="1310" y="210" width="120" height="80" as="geometry" />
        </mxCell>
        <mxCell id="UnlOtEjSE4POLt_gYA5B-31" value="встановити номенклатуру &lt;br&gt;майна" style="ellipse;whiteSpace=wrap;html=1;" vertex="1" parent="1">
          <mxGeometry x="1480" y="770" width="120" height="80" as="geometry" />
        </mxCell>
        <mxCell id="UnlOtEjSE4POLt_gYA5B-32" value="визначити перелік&amp;nbsp; &amp;nbsp;&lt;br&gt;майна для оперативного обліку" style="ellipse;whiteSpace=wrap;html=1;" vertex="1" parent="1">
          <mxGeometry x="1320" y="750" width="150" height="90" as="geometry" />
        </mxCell>
        <mxCell id="UnlOtEjSE4POLt_gYA5B-33" value="звітувати&lt;br&gt;&amp;nbsp;технічний стан &lt;br&gt;майна" style="ellipse;whiteSpace=wrap;html=1;" vertex="1" parent="1">
          <mxGeometry x="1560" y="690" width="150" height="90" as="geometry" />
        </mxCell>
        <mxCell id="UnlOtEjSE4POLt_gYA5B-34" value="підтвердити списання майна" style="ellipse;whiteSpace=wrap;html=1;" vertex="1" parent="1">
          <mxGeometry x="1270" y="660" width="150" height="90" as="geometry" />
        </mxCell>
        <mxCell id="UnlOtEjSE4POLt_gYA5B-35" value="роозглянути аудиторську перевірку (інвентаризацію)" style="ellipse;whiteSpace=wrap;html=1;" vertex="1" parent="1">
          <mxGeometry x="1370" y="580" width="150" height="90" as="geometry" />
        </mxCell>
        <mxCell id="UnlOtEjSE4POLt_gYA5B-36" value="звітувати рух майна" style="ellipse;whiteSpace=wrap;html=1;" vertex="1" parent="1">
          <mxGeometry x="1535" y="590" width="150" height="90" as="geometry" />
        </mxCell>
        <mxCell id="UnlOtEjSE4POLt_gYA5B-39" value="видати наряд на видачу(приймання) майна (один вантажоодержувач)" style="ellipse;whiteSpace=wrap;html=1;" vertex="1" parent="1">
          <mxGeometry x="830" y="360" width="170" height="100" as="geometry" />
        </mxCell>
        <mxCell id="UnlOtEjSE4POLt_gYA5B-40" value="видати наряд на рознарядку майна (багато вантажоодержувачів)" style="ellipse;whiteSpace=wrap;html=1;" vertex="1" parent="1">
          <mxGeometry x="1000" y="200" width="150" height="100" as="geometry" />
        </mxCell>
        <mxCell id="UnlOtEjSE4POLt_gYA5B-41" value="відпускання майна" style="ellipse;whiteSpace=wrap;html=1;" vertex="1" parent="1">
          <mxGeometry x="1170" y="730" width="140" height="90" as="geometry" />
        </mxCell>
        <mxCell id="UnlOtEjSE4POLt_gYA5B-42" value="передавання майна" style="ellipse;whiteSpace=wrap;html=1;" vertex="1" parent="1">
          <mxGeometry x="1120" y="630" width="140" height="90" as="geometry" />
        </mxCell>
        <mxCell id="UnlOtEjSE4POLt_gYA5B-46" style="edgeStyle=orthogonalEdgeStyle;rounded=0;orthogonalLoop=1;jettySize=auto;html=1;exitX=1;exitY=1;exitDx=0;exitDy=0;" edge="1" parent="1" source="UnlOtEjSE4POLt_gYA5B-43" target="UnlOtEjSE4POLt_gYA5B-44">
          <mxGeometry relative="1" as="geometry" />
        </mxCell>
        <mxCell id="UnlOtEjSE4POLt_gYA5B-43" value="звірити дані наявності та технічного стану" style="ellipse;whiteSpace=wrap;html=1;" vertex="1" parent="1">
          <mxGeometry x="1020" y="360" width="150" height="90" as="geometry" />
        </mxCell>
        <mxCell id="UnlOtEjSE4POLt_gYA5B-44" value="звірити дані наявності та технічного стану" style="ellipse;whiteSpace=wrap;html=1;" vertex="1" parent="1">
          <mxGeometry x="1215" y="540" width="150" height="90" as="geometry" />
        </mxCell>
        <mxCell id="UnlOtEjSE4POLt_gYA5B-45" style="edgeStyle=orthogonalEdgeStyle;rounded=0;orthogonalLoop=1;jettySize=auto;html=1;exitX=0;exitY=0;exitDx=0;exitDy=0;entryX=0.697;entryY=1.018;entryDx=0;entryDy=0;entryPerimeter=0;" edge="1" parent="1" source="UnlOtEjSE4POLt_gYA5B-44" target="UnlOtEjSE4POLt_gYA5B-43">
          <mxGeometry relative="1" as="geometry" />
        </mxCell>
        <mxCell id="UnlOtEjSE4POLt_gYA5B-47" value="підрозділи центру забезпечення" style="rounded=0;whiteSpace=wrap;html=1;" vertex="1" parent="1">
          <mxGeometry x="1440" y="940" width="120" height="60" as="geometry" />
        </mxCell>
        <mxCell id="UnlOtEjSE4POLt_gYA5B-48" value="обліково-оператиний підрозділ" style="rounded=0;whiteSpace=wrap;html=1;" vertex="1" parent="1">
          <mxGeometry x="970" y="1060" width="140" height="60" as="geometry" />
        </mxCell>
        <mxCell id="UnlOtEjSE4POLt_gYA5B-56" style="edgeStyle=orthogonalEdgeStyle;rounded=0;orthogonalLoop=1;jettySize=auto;html=1;exitX=0.5;exitY=0;exitDx=0;exitDy=0;" edge="1" parent="1" source="UnlOtEjSE4POLt_gYA5B-49">
          <mxGeometry relative="1" as="geometry">
            <mxPoint x="1200" y="1030" as="targetPoint" />
          </mxGeometry>
        </mxCell>
        <mxCell id="UnlOtEjSE4POLt_gYA5B-49" value="фінансово-економічний орган" style="rounded=0;whiteSpace=wrap;html=1;" vertex="1" parent="1">
          <mxGeometry x="1140" y="1060" width="120" height="60" as="geometry" />
        </mxCell>
        <mxCell id="UnlOtEjSE4POLt_gYA5B-57" style="edgeStyle=orthogonalEdgeStyle;rounded=0;orthogonalLoop=1;jettySize=auto;html=1;" edge="1" parent="1" source="UnlOtEjSE4POLt_gYA5B-50">
          <mxGeometry relative="1" as="geometry">
            <mxPoint x="1370" y="1030" as="targetPoint" />
          </mxGeometry>
        </mxCell>
        <mxCell id="UnlOtEjSE4POLt_gYA5B-50" value="підрозділ &lt;br&gt;зберігання" style="rounded=0;whiteSpace=wrap;html=1;" vertex="1" parent="1">
          <mxGeometry x="1310" y="1060" width="120" height="60" as="geometry" />
        </mxCell>
        <mxCell id="UnlOtEjSE4POLt_gYA5B-58" style="edgeStyle=orthogonalEdgeStyle;rounded=0;orthogonalLoop=1;jettySize=auto;html=1;" edge="1" parent="1" source="UnlOtEjSE4POLt_gYA5B-51">
          <mxGeometry relative="1" as="geometry">
            <mxPoint x="1490" y="1000" as="targetPoint" />
          </mxGeometry>
        </mxCell>
        <mxCell id="UnlOtEjSE4POLt_gYA5B-51" value="сховище" style="rounded=0;whiteSpace=wrap;html=1;" vertex="1" parent="1">
          <mxGeometry x="1460" y="1060" width="150" height="60" as="geometry" />
        </mxCell>
        <mxCell id="UnlOtEjSE4POLt_gYA5B-59" style="edgeStyle=orthogonalEdgeStyle;rounded=0;orthogonalLoop=1;jettySize=auto;html=1;exitX=0.5;exitY=0;exitDx=0;exitDy=0;" edge="1" parent="1" source="UnlOtEjSE4POLt_gYA5B-52">
          <mxGeometry relative="1" as="geometry">
            <mxPoint x="1490" y="1000" as="targetPoint" />
          </mxGeometry>
        </mxCell>
        <mxCell id="UnlOtEjSE4POLt_gYA5B-52" value="ПТЗВ" style="rounded=0;whiteSpace=wrap;html=1;" vertex="1" parent="1">
          <mxGeometry x="1630" y="1060" width="150" height="60" as="geometry" />
        </mxCell>
        <mxCell id="UnlOtEjSE4POLt_gYA5B-53" value="майстерня" style="rounded=0;whiteSpace=wrap;html=1;" vertex="1" parent="1">
          <mxGeometry x="1800" y="1060" width="150" height="60" as="geometry" />
        </mxCell>
        <mxCell id="UnlOtEjSE4POLt_gYA5B-54" value="лабораторія" style="rounded=0;whiteSpace=wrap;html=1;" vertex="1" parent="1">
          <mxGeometry x="1980" y="1060" width="150" height="60" as="geometry" />
        </mxCell>
        <mxCell id="UnlOtEjSE4POLt_gYA5B-55" style="edgeStyle=orthogonalEdgeStyle;rounded=0;orthogonalLoop=1;jettySize=auto;html=1;entryX=0.445;entryY=1.02;entryDx=0;entryDy=0;entryPerimeter=0;exitX=0.5;exitY=0;exitDx=0;exitDy=0;" edge="1" parent="1" source="UnlOtEjSE4POLt_gYA5B-48" target="UnlOtEjSE4POLt_gYA5B-47">
          <mxGeometry relative="1" as="geometry" />
        </mxCell>
        <mxCell id="UnlOtEjSE4POLt_gYA5B-60" style="edgeStyle=orthogonalEdgeStyle;rounded=0;orthogonalLoop=1;jettySize=auto;html=1;entryX=0.432;entryY=1.007;entryDx=0;entryDy=0;entryPerimeter=0;" edge="1" parent="1" source="UnlOtEjSE4POLt_gYA5B-53" target="UnlOtEjSE4POLt_gYA5B-47">
          <mxGeometry relative="1" as="geometry">
            <Array as="points">
              <mxPoint x="1875" y="1030" />
              <mxPoint x="1492" y="1030" />
            </Array>
          </mxGeometry>
        </mxCell>
        <mxCell id="UnlOtEjSE4POLt_gYA5B-61" style="edgeStyle=orthogonalEdgeStyle;rounded=0;orthogonalLoop=1;jettySize=auto;html=1;exitX=0.5;exitY=0;exitDx=0;exitDy=0;entryX=0.438;entryY=1.113;entryDx=0;entryDy=0;entryPerimeter=0;" edge="1" parent="1" source="UnlOtEjSE4POLt_gYA5B-54" target="UnlOtEjSE4POLt_gYA5B-47">
          <mxGeometry relative="1" as="geometry" />
        </mxCell>
        <mxCell id="UnlOtEjSE4POLt_gYA5B-79" style="edgeStyle=orthogonalEdgeStyle;rounded=0;orthogonalLoop=1;jettySize=auto;html=1;" edge="1" parent="1" source="UnlOtEjSE4POLt_gYA5B-62" target="UnlOtEjSE4POLt_gYA5B-73">
          <mxGeometry relative="1" as="geometry" />
        </mxCell>
        <mxCell id="UnlOtEjSE4POLt_gYA5B-83" style="edgeStyle=orthogonalEdgeStyle;rounded=0;orthogonalLoop=1;jettySize=auto;html=1;" edge="1" parent="1" target="UnlOtEjSE4POLt_gYA5B-63">
          <mxGeometry relative="1" as="geometry">
            <mxPoint x="1110" y="1795" as="sourcePoint" />
          </mxGeometry>
        </mxCell>
        <mxCell id="UnlOtEjSE4POLt_gYA5B-86" style="edgeStyle=orthogonalEdgeStyle;rounded=0;orthogonalLoop=1;jettySize=auto;html=1;exitX=0.5;exitY=0;exitDx=0;exitDy=0;exitPerimeter=0;entryX=0;entryY=1;entryDx=0;entryDy=0;" edge="1" parent="1" source="UnlOtEjSE4POLt_gYA5B-62" target="UnlOtEjSE4POLt_gYA5B-84">
          <mxGeometry relative="1" as="geometry" />
        </mxCell>
        <mxCell id="UnlOtEjSE4POLt_gYA5B-90" style="edgeStyle=orthogonalEdgeStyle;rounded=0;orthogonalLoop=1;jettySize=auto;html=1;entryX=0.5;entryY=1;entryDx=0;entryDy=0;" edge="1" parent="1" source="UnlOtEjSE4POLt_gYA5B-62" target="UnlOtEjSE4POLt_gYA5B-89">
          <mxGeometry relative="1" as="geometry" />
        </mxCell>
        <mxCell id="UnlOtEjSE4POLt_gYA5B-62" value="обліково-операційний &lt;br&gt;підрозділ" style="shape=umlActor;verticalLabelPosition=bottom;verticalAlign=top;html=1;outlineConnect=0;" vertex="1" parent="1">
          <mxGeometry x="1090" y="1690" width="30" height="60" as="geometry" />
        </mxCell>
        <mxCell id="UnlOtEjSE4POLt_gYA5B-63" value="скласти первинний документ майна" style="ellipse;whiteSpace=wrap;html=1;" vertex="1" parent="1">
          <mxGeometry x="1070" y="1840" width="120" height="80" as="geometry" />
        </mxCell>
        <mxCell id="UnlOtEjSE4POLt_gYA5B-64" value="властивості майна&lt;br&gt;під обліком&amp;nbsp;" style="rounded=0;whiteSpace=wrap;html=1;" vertex="1" parent="1">
          <mxGeometry x="1460" y="1240" width="120" height="60" as="geometry" />
        </mxCell>
        <mxCell id="UnlOtEjSE4POLt_gYA5B-65" value="рух майна" style="rounded=0;whiteSpace=wrap;html=1;" vertex="1" parent="1">
          <mxGeometry x="1250" y="1360" width="120" height="60" as="geometry" />
        </mxCell>
        <mxCell id="UnlOtEjSE4POLt_gYA5B-70" style="edgeStyle=orthogonalEdgeStyle;rounded=0;orthogonalLoop=1;jettySize=auto;html=1;exitX=0.5;exitY=0;exitDx=0;exitDy=0;" edge="1" parent="1" source="UnlOtEjSE4POLt_gYA5B-66">
          <mxGeometry relative="1" as="geometry">
            <mxPoint x="1510" y="1300" as="targetPoint" />
          </mxGeometry>
        </mxCell>
        <mxCell id="UnlOtEjSE4POLt_gYA5B-66" value="технічний стан" style="rounded=0;whiteSpace=wrap;html=1;" vertex="1" parent="1">
          <mxGeometry x="1390" y="1360" width="120" height="60" as="geometry" />
        </mxCell>
        <mxCell id="UnlOtEjSE4POLt_gYA5B-67" value="наявність майна" style="rounded=0;whiteSpace=wrap;html=1;" vertex="1" parent="1">
          <mxGeometry x="1530" y="1360" width="120" height="60" as="geometry" />
        </mxCell>
        <mxCell id="UnlOtEjSE4POLt_gYA5B-72" style="edgeStyle=orthogonalEdgeStyle;rounded=0;orthogonalLoop=1;jettySize=auto;html=1;exitX=0.5;exitY=0;exitDx=0;exitDy=0;" edge="1" parent="1" source="UnlOtEjSE4POLt_gYA5B-68">
          <mxGeometry relative="1" as="geometry">
            <mxPoint x="1510" y="1300" as="targetPoint" />
          </mxGeometry>
        </mxCell>
        <mxCell id="UnlOtEjSE4POLt_gYA5B-68" value="вартість" style="rounded=0;whiteSpace=wrap;html=1;" vertex="1" parent="1">
          <mxGeometry x="1670" y="1360" width="120" height="60" as="geometry" />
        </mxCell>
        <mxCell id="UnlOtEjSE4POLt_gYA5B-69" style="edgeStyle=orthogonalEdgeStyle;rounded=0;orthogonalLoop=1;jettySize=auto;html=1;exitX=0.5;exitY=0;exitDx=0;exitDy=0;entryX=0.412;entryY=1.02;entryDx=0;entryDy=0;entryPerimeter=0;" edge="1" parent="1" source="UnlOtEjSE4POLt_gYA5B-65" target="UnlOtEjSE4POLt_gYA5B-64">
          <mxGeometry relative="1" as="geometry" />
        </mxCell>
        <mxCell id="UnlOtEjSE4POLt_gYA5B-71" style="edgeStyle=orthogonalEdgeStyle;rounded=0;orthogonalLoop=1;jettySize=auto;html=1;entryX=0.385;entryY=0.993;entryDx=0;entryDy=0;entryPerimeter=0;" edge="1" parent="1" source="UnlOtEjSE4POLt_gYA5B-67" target="UnlOtEjSE4POLt_gYA5B-64">
          <mxGeometry relative="1" as="geometry" />
        </mxCell>
        <mxCell id="UnlOtEjSE4POLt_gYA5B-80" style="edgeStyle=orthogonalEdgeStyle;rounded=0;orthogonalLoop=1;jettySize=auto;html=1;" edge="1" parent="1" source="UnlOtEjSE4POLt_gYA5B-73">
          <mxGeometry relative="1" as="geometry">
            <mxPoint x="990" y="1960" as="targetPoint" />
          </mxGeometry>
        </mxCell>
        <mxCell id="UnlOtEjSE4POLt_gYA5B-73" value="звітувати первинні документи&amp;nbsp;" style="ellipse;whiteSpace=wrap;html=1;" vertex="1" parent="1">
          <mxGeometry x="840" y="1810" width="120" height="80" as="geometry" />
        </mxCell>
        <mxCell id="UnlOtEjSE4POLt_gYA5B-93" style="edgeStyle=orthogonalEdgeStyle;rounded=0;orthogonalLoop=1;jettySize=auto;html=1;entryX=1;entryY=0;entryDx=0;entryDy=0;" edge="1" parent="1" source="UnlOtEjSE4POLt_gYA5B-78" target="UnlOtEjSE4POLt_gYA5B-92">
          <mxGeometry relative="1" as="geometry" />
        </mxCell>
        <mxCell id="UnlOtEjSE4POLt_gYA5B-78" value="фінансово-економічний &lt;br&gt;підрозділ" style="shape=umlActor;verticalLabelPosition=bottom;verticalAlign=top;html=1;outlineConnect=0;" vertex="1" parent="1">
          <mxGeometry x="980" y="1970" width="30" height="60" as="geometry" />
        </mxCell>
        <mxCell id="UnlOtEjSE4POLt_gYA5B-81" value="вести обліковий регістр майна" style="ellipse;whiteSpace=wrap;html=1;" vertex="1" parent="1">
          <mxGeometry x="830" y="1580" width="120" height="80" as="geometry" />
        </mxCell>
        <mxCell id="UnlOtEjSE4POLt_gYA5B-82" style="edgeStyle=orthogonalEdgeStyle;rounded=0;orthogonalLoop=1;jettySize=auto;html=1;entryX=0.598;entryY=1;entryDx=0;entryDy=0;entryPerimeter=0;" edge="1" parent="1" target="UnlOtEjSE4POLt_gYA5B-81">
          <mxGeometry relative="1" as="geometry">
            <mxPoint x="1080" y="1700" as="sourcePoint" />
            <mxPoint x="910" y="1820" as="targetPoint" />
          </mxGeometry>
        </mxCell>
        <mxCell id="UnlOtEjSE4POLt_gYA5B-84" value="планувати діяльність підрозділів" style="ellipse;whiteSpace=wrap;html=1;" vertex="1" parent="1">
          <mxGeometry x="1190" y="1560" width="170" height="90" as="geometry" />
        </mxCell>
        <mxCell id="UnlOtEjSE4POLt_gYA5B-85" value="контролювати&lt;br&gt;&amp;nbsp;діяльність підрозділів" style="ellipse;whiteSpace=wrap;html=1;" vertex="1" parent="1">
          <mxGeometry x="1240" y="1660" width="170" height="90" as="geometry" />
        </mxCell>
        <mxCell id="UnlOtEjSE4POLt_gYA5B-87" style="edgeStyle=orthogonalEdgeStyle;rounded=0;orthogonalLoop=1;jettySize=auto;html=1;entryX=0.018;entryY=0.653;entryDx=0;entryDy=0;entryPerimeter=0;" edge="1" parent="1" source="UnlOtEjSE4POLt_gYA5B-62" target="UnlOtEjSE4POLt_gYA5B-85">
          <mxGeometry relative="1" as="geometry" />
        </mxCell>
        <mxCell id="UnlOtEjSE4POLt_gYA5B-88" value="вести облік постачання майна підприємствами" style="ellipse;whiteSpace=wrap;html=1;" vertex="1" parent="1">
          <mxGeometry x="930" y="1490" width="120" height="80" as="geometry" />
        </mxCell>
        <mxCell id="UnlOtEjSE4POLt_gYA5B-89" value="вести облік розрахунків постачання" style="ellipse;whiteSpace=wrap;html=1;" vertex="1" parent="1">
          <mxGeometry x="1080" y="1480" width="120" height="80" as="geometry" />
        </mxCell>
        <mxCell id="UnlOtEjSE4POLt_gYA5B-91" style="edgeStyle=orthogonalEdgeStyle;rounded=0;orthogonalLoop=1;jettySize=auto;html=1;exitX=0.25;exitY=0.1;exitDx=0;exitDy=0;exitPerimeter=0;entryX=0.635;entryY=1;entryDx=0;entryDy=0;entryPerimeter=0;" edge="1" parent="1" source="UnlOtEjSE4POLt_gYA5B-62" target="UnlOtEjSE4POLt_gYA5B-88">
          <mxGeometry relative="1" as="geometry" />
        </mxCell>
        <mxCell id="UnlOtEjSE4POLt_gYA5B-92" value="вести бухгалтерський &lt;br&gt;облік майна" style="ellipse;whiteSpace=wrap;html=1;" vertex="1" parent="1">
          <mxGeometry x="750" y="1980" width="120" height="80" as="geometry" />
        </mxCell>
        <mxCell id="UnlOtEjSE4POLt_gYA5B-98" style="edgeStyle=orthogonalEdgeStyle;rounded=0;orthogonalLoop=1;jettySize=auto;html=1;" edge="1" parent="1" target="UnlOtEjSE4POLt_gYA5B-96">
          <mxGeometry relative="1" as="geometry">
            <mxPoint x="1210" y="2370" as="sourcePoint" />
          </mxGeometry>
        </mxCell>
        <mxCell id="UnlOtEjSE4POLt_gYA5B-125" style="edgeStyle=orthogonalEdgeStyle;rounded=0;orthogonalLoop=1;jettySize=auto;html=1;entryX=0;entryY=0.5;entryDx=0;entryDy=0;" edge="1" parent="1" target="UnlOtEjSE4POLt_gYA5B-124">
          <mxGeometry relative="1" as="geometry">
            <mxPoint x="1230" y="2300" as="sourcePoint" />
          </mxGeometry>
        </mxCell>
        <mxCell id="UnlOtEjSE4POLt_gYA5B-94" value="підрозділ зберігання &lt;br&gt;(сховище)" style="shape=umlActor;verticalLabelPosition=bottom;verticalAlign=top;html=1;outlineConnect=0;" vertex="1" parent="1">
          <mxGeometry x="1180" y="2260" width="30" height="60" as="geometry" />
        </mxCell>
        <mxCell id="UnlOtEjSE4POLt_gYA5B-95" value="документувати приймання майна" style="ellipse;whiteSpace=wrap;html=1;" vertex="1" parent="1">
          <mxGeometry x="1020" y="2410" width="120" height="80" as="geometry" />
        </mxCell>
        <mxCell id="UnlOtEjSE4POLt_gYA5B-96" value="документувати відпускання майна" style="ellipse;whiteSpace=wrap;html=1;" vertex="1" parent="1">
          <mxGeometry x="1190" y="2430" width="120" height="80" as="geometry" />
        </mxCell>
        <mxCell id="UnlOtEjSE4POLt_gYA5B-97" style="edgeStyle=orthogonalEdgeStyle;rounded=0;orthogonalLoop=1;jettySize=auto;html=1;entryX=0.75;entryY=0;entryDx=0;entryDy=0;entryPerimeter=0;" edge="1" parent="1">
          <mxGeometry relative="1" as="geometry">
            <mxPoint x="1180" y="2290" as="sourcePoint" />
            <mxPoint x="1090" y="2380" as="targetPoint" />
          </mxGeometry>
        </mxCell>
        <mxCell id="UnlOtEjSE4POLt_gYA5B-100" value="облік наявності, технічного, вартісного стану майна, номерних показників (заводських)" style="ellipse;whiteSpace=wrap;html=1;" vertex="1" parent="1">
          <mxGeometry x="860" y="2290" width="180" height="90" as="geometry" />
        </mxCell>
        <mxCell id="UnlOtEjSE4POLt_gYA5B-101" style="edgeStyle=orthogonalEdgeStyle;rounded=0;orthogonalLoop=1;jettySize=auto;html=1;entryX=1.032;entryY=0.415;entryDx=0;entryDy=0;entryPerimeter=0;" edge="1" parent="1">
          <mxGeometry relative="1" as="geometry">
            <mxPoint x="1160" y="2273" as="sourcePoint" />
            <mxPoint x="985.76" y="2277.35" as="targetPoint" />
          </mxGeometry>
        </mxCell>
        <mxCell id="UnlOtEjSE4POLt_gYA5B-102" value="облікувати технічне обслуговування майна" style="ellipse;whiteSpace=wrap;html=1;" vertex="1" parent="1">
          <mxGeometry x="1190" y="2120" width="180" height="90" as="geometry" />
        </mxCell>
        <mxCell id="UnlOtEjSE4POLt_gYA5B-103" style="edgeStyle=orthogonalEdgeStyle;rounded=0;orthogonalLoop=1;jettySize=auto;html=1;exitX=0.5;exitY=0;exitDx=0;exitDy=0;exitPerimeter=0;entryX=0.388;entryY=1;entryDx=0;entryDy=0;entryPerimeter=0;" edge="1" parent="1" source="UnlOtEjSE4POLt_gYA5B-94">
          <mxGeometry relative="1" as="geometry">
            <mxPoint x="1259.84" y="2210" as="targetPoint" />
          </mxGeometry>
        </mxCell>
        <mxCell id="UnlOtEjSE4POLt_gYA5B-106" style="edgeStyle=orthogonalEdgeStyle;rounded=0;orthogonalLoop=1;jettySize=auto;html=1;" edge="1" parent="1" source="UnlOtEjSE4POLt_gYA5B-104">
          <mxGeometry relative="1" as="geometry">
            <mxPoint x="1040" y="2070" as="targetPoint" />
          </mxGeometry>
        </mxCell>
        <mxCell id="UnlOtEjSE4POLt_gYA5B-104" value="звітувати первинні документи&amp;nbsp;" style="ellipse;whiteSpace=wrap;html=1;" vertex="1" parent="1">
          <mxGeometry x="1010" y="2120" width="120" height="80" as="geometry" />
        </mxCell>
        <mxCell id="UnlOtEjSE4POLt_gYA5B-105" style="edgeStyle=orthogonalEdgeStyle;rounded=0;orthogonalLoop=1;jettySize=auto;html=1;entryX=0.762;entryY=0.925;entryDx=0;entryDy=0;entryPerimeter=0;" edge="1" parent="1" target="UnlOtEjSE4POLt_gYA5B-104">
          <mxGeometry relative="1" as="geometry">
            <mxPoint x="1170" y="2260" as="sourcePoint" />
          </mxGeometry>
        </mxCell>
        <mxCell id="UnlOtEjSE4POLt_gYA5B-107" value="скласти акт вилучення комплектуючого майна" style="ellipse;whiteSpace=wrap;html=1;" vertex="1" parent="1">
          <mxGeometry x="1380" y="2240" width="180" height="90" as="geometry" />
        </mxCell>
        <mxCell id="UnlOtEjSE4POLt_gYA5B-108" style="edgeStyle=orthogonalEdgeStyle;rounded=0;orthogonalLoop=1;jettySize=auto;html=1;entryX=0.009;entryY=0.42;entryDx=0;entryDy=0;entryPerimeter=0;" edge="1" parent="1" target="UnlOtEjSE4POLt_gYA5B-107">
          <mxGeometry relative="1" as="geometry">
            <mxPoint x="1220" y="2260" as="sourcePoint" />
            <mxPoint x="1290" y="2350" as="targetPoint" />
          </mxGeometry>
        </mxCell>
        <mxCell id="UnlOtEjSE4POLt_gYA5B-111" style="edgeStyle=orthogonalEdgeStyle;rounded=0;orthogonalLoop=1;jettySize=auto;html=1;" edge="1" parent="1" target="UnlOtEjSE4POLt_gYA5B-110">
          <mxGeometry relative="1" as="geometry">
            <mxPoint x="1700" y="1840" as="sourcePoint" />
          </mxGeometry>
        </mxCell>
        <mxCell id="UnlOtEjSE4POLt_gYA5B-113" style="edgeStyle=orthogonalEdgeStyle;rounded=0;orthogonalLoop=1;jettySize=auto;html=1;" edge="1" parent="1" target="UnlOtEjSE4POLt_gYA5B-112">
          <mxGeometry relative="1" as="geometry">
            <mxPoint x="1690" y="1870" as="sourcePoint" />
          </mxGeometry>
        </mxCell>
        <mxCell id="UnlOtEjSE4POLt_gYA5B-115" style="edgeStyle=orthogonalEdgeStyle;rounded=0;orthogonalLoop=1;jettySize=auto;html=1;" edge="1" parent="1" source="UnlOtEjSE4POLt_gYA5B-109" target="UnlOtEjSE4POLt_gYA5B-114">
          <mxGeometry relative="1" as="geometry" />
        </mxCell>
        <mxCell id="UnlOtEjSE4POLt_gYA5B-109" value="ПТЗВ" style="shape=umlActor;verticalLabelPosition=bottom;verticalAlign=top;html=1;outlineConnect=0;" vertex="1" parent="1">
          <mxGeometry x="1650" y="1780" width="30" height="60" as="geometry" />
        </mxCell>
        <mxCell id="UnlOtEjSE4POLt_gYA5B-110" value="вести облікові регістри&lt;br&gt;&amp;nbsp;майна" style="ellipse;whiteSpace=wrap;html=1;" vertex="1" parent="1">
          <mxGeometry x="1680" y="1690" width="180" height="90" as="geometry" />
        </mxCell>
        <mxCell id="UnlOtEjSE4POLt_gYA5B-112" value="оформити первиннні &lt;br&gt;документи" style="ellipse;whiteSpace=wrap;html=1;" vertex="1" parent="1">
          <mxGeometry x="1670" y="1920" width="180" height="90" as="geometry" />
        </mxCell>
        <mxCell id="UnlOtEjSE4POLt_gYA5B-116" style="edgeStyle=orthogonalEdgeStyle;rounded=0;orthogonalLoop=1;jettySize=auto;html=1;" edge="1" parent="1" source="UnlOtEjSE4POLt_gYA5B-114">
          <mxGeometry relative="1" as="geometry">
            <mxPoint x="1026.4444986979167" y="2010" as="targetPoint" />
            <Array as="points">
              <mxPoint x="1560" y="1950" />
              <mxPoint x="1026" y="1950" />
            </Array>
          </mxGeometry>
        </mxCell>
        <mxCell id="UnlOtEjSE4POLt_gYA5B-117" style="edgeStyle=orthogonalEdgeStyle;rounded=0;orthogonalLoop=1;jettySize=auto;html=1;exitX=0;exitY=0.5;exitDx=0;exitDy=0;" edge="1" parent="1" source="UnlOtEjSE4POLt_gYA5B-114">
          <mxGeometry relative="1" as="geometry">
            <mxPoint x="1180" y="1750" as="targetPoint" />
            <Array as="points">
              <mxPoint x="1500" y="1810" />
              <mxPoint x="1181" y="1810" />
              <mxPoint x="1181" y="1750" />
            </Array>
          </mxGeometry>
        </mxCell>
        <mxCell id="UnlOtEjSE4POLt_gYA5B-114" value="звітувати первинні документи&amp;nbsp;" style="ellipse;whiteSpace=wrap;html=1;" vertex="1" parent="1">
          <mxGeometry x="1500" y="1850" width="120" height="80" as="geometry" />
        </mxCell>
        <mxCell id="UnlOtEjSE4POLt_gYA5B-121" style="edgeStyle=orthogonalEdgeStyle;rounded=0;orthogonalLoop=1;jettySize=auto;html=1;entryX=0;entryY=0;entryDx=0;entryDy=0;" edge="1" parent="1" target="UnlOtEjSE4POLt_gYA5B-120">
          <mxGeometry relative="1" as="geometry">
            <mxPoint x="1810" y="2240" as="sourcePoint" />
          </mxGeometry>
        </mxCell>
        <mxCell id="UnlOtEjSE4POLt_gYA5B-122" style="edgeStyle=orthogonalEdgeStyle;rounded=0;orthogonalLoop=1;jettySize=auto;html=1;" edge="1" parent="1" target="UnlOtEjSE4POLt_gYA5B-119">
          <mxGeometry relative="1" as="geometry">
            <mxPoint x="1785" y="2300" as="sourcePoint" />
          </mxGeometry>
        </mxCell>
        <mxCell id="UnlOtEjSE4POLt_gYA5B-127" style="edgeStyle=orthogonalEdgeStyle;rounded=0;orthogonalLoop=1;jettySize=auto;html=1;entryX=1;entryY=0;entryDx=0;entryDy=0;" edge="1" parent="1" target="UnlOtEjSE4POLt_gYA5B-123">
          <mxGeometry relative="1" as="geometry">
            <mxPoint x="1770" y="2300" as="sourcePoint" />
          </mxGeometry>
        </mxCell>
        <mxCell id="UnlOtEjSE4POLt_gYA5B-129" style="edgeStyle=orthogonalEdgeStyle;rounded=0;orthogonalLoop=1;jettySize=auto;html=1;exitX=0.5;exitY=0;exitDx=0;exitDy=0;exitPerimeter=0;entryX=0;entryY=1;entryDx=0;entryDy=0;" edge="1" parent="1" source="UnlOtEjSE4POLt_gYA5B-118" target="UnlOtEjSE4POLt_gYA5B-128">
          <mxGeometry relative="1" as="geometry" />
        </mxCell>
        <mxCell id="UnlOtEjSE4POLt_gYA5B-131" style="edgeStyle=orthogonalEdgeStyle;rounded=0;orthogonalLoop=1;jettySize=auto;html=1;entryX=0;entryY=0.5;entryDx=0;entryDy=0;" edge="1" parent="1" target="UnlOtEjSE4POLt_gYA5B-130">
          <mxGeometry relative="1" as="geometry">
            <mxPoint x="1790" y="2210" as="sourcePoint" />
          </mxGeometry>
        </mxCell>
        <mxCell id="UnlOtEjSE4POLt_gYA5B-118" value="майстерня (цех)" style="shape=umlActor;verticalLabelPosition=bottom;verticalAlign=top;html=1;outlineConnect=0;" vertex="1" parent="1">
          <mxGeometry x="1750" y="2200" width="30" height="60" as="geometry" />
        </mxCell>
        <mxCell id="UnlOtEjSE4POLt_gYA5B-119" value="вести облік книги &lt;br&gt;&amp;nbsp;військового&lt;br&gt;&amp;nbsp;майна&amp;nbsp;" style="ellipse;whiteSpace=wrap;html=1;" vertex="1" parent="1">
          <mxGeometry x="1810" y="2390" width="180" height="90" as="geometry" />
        </mxCell>
        <mxCell id="UnlOtEjSE4POLt_gYA5B-120" value="вести облік книги &lt;br&gt;&amp;nbsp;Запасних частин, інструменту і приладдя (ЗІП)&amp;nbsp;" style="ellipse;whiteSpace=wrap;html=1;" vertex="1" parent="1">
          <mxGeometry x="1920" y="2270" width="180" height="90" as="geometry" />
        </mxCell>
        <mxCell id="UnlOtEjSE4POLt_gYA5B-123" value="вести облік книги &lt;br&gt;&amp;nbsp;ремонту (отриманих несправностей)" style="ellipse;whiteSpace=wrap;html=1;" vertex="1" parent="1">
          <mxGeometry x="1620" y="2460" width="180" height="90" as="geometry" />
        </mxCell>
        <mxCell id="UnlOtEjSE4POLt_gYA5B-126" style="edgeStyle=orthogonalEdgeStyle;rounded=0;orthogonalLoop=1;jettySize=auto;html=1;exitX=1;exitY=0.5;exitDx=0;exitDy=0;" edge="1" parent="1" source="UnlOtEjSE4POLt_gYA5B-124">
          <mxGeometry relative="1" as="geometry">
            <mxPoint x="1750" y="2300" as="targetPoint" />
          </mxGeometry>
        </mxCell>
        <mxCell id="UnlOtEjSE4POLt_gYA5B-124" value="відіслати несправне майно на ремонт" style="ellipse;whiteSpace=wrap;html=1;" vertex="1" parent="1">
          <mxGeometry x="1350" y="2350" width="120" height="80" as="geometry" />
        </mxCell>
        <mxCell id="UnlOtEjSE4POLt_gYA5B-128" value="вести облік книги &lt;br&gt;майна тимчасового корситування" style="ellipse;whiteSpace=wrap;html=1;" vertex="1" parent="1">
          <mxGeometry x="1850" y="2040" width="180" height="90" as="geometry" />
        </mxCell>
        <mxCell id="UnlOtEjSE4POLt_gYA5B-130" value="вести облік книги &lt;br&gt;зібраного та &lt;br&gt;відремонтованого майна" style="ellipse;whiteSpace=wrap;html=1;" vertex="1" parent="1">
          <mxGeometry x="2010" y="2140" width="180" height="90" as="geometry" />
        </mxCell>
        <mxCell id="UnlOtEjSE4POLt_gYA5B-134" style="edgeStyle=orthogonalEdgeStyle;rounded=0;orthogonalLoop=1;jettySize=auto;html=1;exitX=0;exitY=0.5;exitDx=0;exitDy=0;" edge="1" parent="1" source="UnlOtEjSE4POLt_gYA5B-132">
          <mxGeometry relative="1" as="geometry">
            <mxPoint x="1010" y="2000" as="targetPoint" />
            <Array as="points">
              <mxPoint x="1570" y="2020" />
              <mxPoint x="1021" y="2020" />
              <mxPoint x="1021" y="2000" />
            </Array>
          </mxGeometry>
        </mxCell>
        <mxCell id="UnlOtEjSE4POLt_gYA5B-132" value="звітувати книгу обліку &lt;br&gt;ремонту" style="ellipse;whiteSpace=wrap;html=1;" vertex="1" parent="1">
          <mxGeometry x="1570" y="2090" width="180" height="90" as="geometry" />
        </mxCell>
        <mxCell id="UnlOtEjSE4POLt_gYA5B-133" style="edgeStyle=orthogonalEdgeStyle;rounded=0;orthogonalLoop=1;jettySize=auto;html=1;entryX=0.687;entryY=1.037;entryDx=0;entryDy=0;entryPerimeter=0;" edge="1" parent="1" target="UnlOtEjSE4POLt_gYA5B-132">
          <mxGeometry relative="1" as="geometry">
            <mxPoint x="1730" y="2220" as="sourcePoint" />
          </mxGeometry>
        </mxCell>
      </root>
    </mxGraphModel>
  </diagram>
</mxfile>
